<svg version="1.1" id="Layer_1" xmlns="http://www.w3.org/2000/svg" xmlns:xlink="http://www.w3.org/1999/xlink" x="0px" y="0px"
	 width="100%" viewBox="0 0 1080 1080" enable-background="new 0 0 1080 1080" xml:space="preserve">
<rect width="100%" height="100%" fill="#F5F2EC"/>
<path fill="none" opacity="1.000000" stroke="#7A9E7E" stroke-linecap="round" stroke-linejoin="round" stroke-width="4.000000"
	d="
M492.500000,176.000000 
	C485.056335,179.183853 477.282104,181.365448 469.494232,183.478699 
	C463.120911,185.208115 462.354340,186.452438 463.987030,193.003235 
	C464.730011,195.984222 465.548828,198.970917 465.958374,202.005615 
	C467.050446,210.097672 464.840668,213.950317 456.996094,217.992416 
	C447.458405,222.906967 437.047821,225.469574 426.992065,228.977264 
	C399.044281,238.726181 372.768066,251.882797 348.030914,268.047302 
	C324.120880,283.671234 301.827423,301.419006 282.587097,322.579193 
	C260.245026,347.150574 240.946777,373.916290 225.334534,403.412415 
	C214.670227,423.560455 206.081329,444.465240 199.106262,466.034363 
	C190.756042,491.855865 186.242859,518.510254 183.442230,545.494019 
	C181.074234,568.309387 181.392426,591.205322 182.288467,613.988647 
	C183.186264,636.816711 187.594254,659.374939 193.584564,681.477051 
	C196.974136,693.983398 200.953674,706.319153 205.354584,718.552307 
	C214.442795,743.814636 226.615768,767.459961 241.062973,789.959595 
	C251.097534,805.587036 262.470795,820.219666 274.917145,834.074463 
	C287.884247,848.508911 301.628601,862.102905 316.547546,874.442505 
	C341.896240,895.408813 369.500061,912.755005 399.429596,926.651611 
	C427.816742,939.832153 457.299805,949.066223 488.017731,954.397888 
	C502.701996,956.946594 517.549622,958.397705 532.495178,959.102661 
	C562.576294,960.521484 592.163269,957.317200 621.498962,950.995300 
	C643.716553,946.207397 665.138123,938.957764 685.999390,929.998535 
	C717.515259,916.463501 746.505859,898.867310 773.075500,877.092163 
	C789.756104,863.421448 805.384583,848.710022 819.406128,832.419189 
	C837.981384,810.837830 854.243103,787.596802 867.063293,762.031738 
	C872.798584,750.594910 878.939453,739.409973 882.547180,727.013733 
	C888.679688,705.942139 882.903320,687.479309 870.438904,670.544983 
	C864.982178,663.131348 858.407227,656.627380 852.042786,649.959167 
	C836.920288,634.114990 828.199463,614.979492 825.143066,593.479675 
	C823.358276,580.924561 823.329529,568.130005 821.925476,555.508301 
	C819.615784,534.744202 816.299133,514.126099 810.486450,494.003906 
	C800.108521,458.077911 782.824707,425.877747 759.076843,396.936951 
	C735.241089,367.888977 706.413574,345.144318 673.447571,327.598541 
	C652.978271,316.704041 631.316284,308.783539 608.528442,303.868134 
	C596.594604,301.293976 584.605103,299.645477 572.500000,298.500000 
"/>
<path fill="none" opacity="1.000000" stroke="#7A9E7E" stroke-linecap="round" stroke-linejoin="round" stroke-width="4.000000"
	d="
M871.000000,620.000000 
	C872.643616,609.206970 872.663818,598.392639 872.111755,587.494324 
	C871.673340,578.838440 871.484192,570.164185 871.089783,561.495911 
	C869.991333,537.356201 865.650635,513.818420 859.581421,490.478821 
	C854.033203,469.142822 846.168762,448.710297 836.408203,429.045563 
	C826.116272,408.310120 813.885071,388.714355 799.527405,370.478424 
	C790.006836,358.386078 779.604492,347.120667 768.484802,336.515930 
	C748.024231,317.002594 725.300598,300.563812 700.496704,287.005981 
	C680.121216,275.868683 658.758179,267.090607 636.497009,260.510132 
	C618.836670,255.289703 600.869263,251.619141 582.504395,249.951584 
	C580.482910,249.768036 578.522217,248.915604 576.308533,248.312119 
	C574.515381,252.935699 573.258606,257.747498 570.912048,261.950867 
	C561.489868,278.829102 546.765625,289.030060 528.499512,294.498260 
	C514.775085,298.606812 500.447784,299.553528 486.497711,302.489166 
	C453.511566,309.430695 423.192200,322.492157 394.925232,340.885071 
	C374.060333,354.461456 355.493408,370.584412 339.105835,389.093719 
	C317.720459,413.247894 300.753143,440.305298 288.982361,470.493134 
	C277.862000,499.013062 271.524689,528.647583 268.588959,559.008606 
	C267.015137,575.284241 266.595825,591.592834 267.817566,608.013550 
	C269.178925,626.311340 272.076782,644.274780 276.554810,661.986145 
	C285.206421,696.204529 300.390045,727.418091 321.016541,755.988037 
	C348.578613,794.164673 383.627258,823.496033 426.012360,843.974426 
	C456.697327,858.799866 488.937225,867.987061 522.991577,871.092163 
	C558.852112,874.362000 593.836426,870.416382 627.972900,859.415833 
	C658.989624,849.420532 687.232300,834.165649 713.097534,814.125854 
	C740.522278,792.877930 762.875488,767.284424 780.872986,737.922119 
	C795.217529,714.519470 806.176025,689.618225 810.144104,662.020691 
	C811.313599,653.886658 811.053101,646.056946 808.390747,638.538696 
	C803.560669,624.898865 792.600159,620.315430 779.010010,619.357910 
	C771.121643,618.802063 763.336426,619.887817 755.498840,619.525208 
	C750.838501,619.309570 748.565491,617.377441 749.047058,613.005188 
	C750.495422,599.855652 749.919189,586.673706 750.015686,573.500122 
	C750.059631,567.499451 747.742920,561.500000 750.188049,555.000000 
	C762.828979,555.000000 775.664490,555.000000 788.500000,555.000000 
"/>
<path fill="none" opacity="1.000000" stroke="#7A9E7E" stroke-linecap="round" stroke-linejoin="round" stroke-width="4.000000"
	d="
M575.000000,249.500000 
	C563.439819,246.969482 551.696655,247.389389 540.001038,247.568878 
	C532.001770,247.691666 523.920166,247.852783 516.029907,248.759888 
	C508.364319,249.641144 500.641266,250.702682 493.007111,252.040619 
	C456.489502,258.440552 421.969513,270.180298 389.393860,288.309265 
	C356.265045,306.746033 327.138306,329.864319 302.083679,358.074310 
	C280.272858,382.631989 262.414154,409.940918 249.033905,440.015076 
	C237.147110,466.732422 229.047195,494.583099 224.446640,523.491516 
	C221.068680,544.717529 219.541962,566.124634 218.239655,587.514587 
	C217.656357,597.095032 219.704758,606.830200 220.491425,616.500671 
	C221.791977,632.488281 223.947830,648.345093 227.496872,664.000732 
	C235.372406,698.741638 248.362274,731.323914 267.398651,761.563782 
	C278.244843,778.793213 290.398590,794.856995 303.907410,810.082153 
	C327.177124,836.308228 354.075867,858.049988 384.057465,875.903503 
	C418.103455,896.177246 454.769470,909.526428 493.975555,916.144714 
	C514.734497,919.649048 535.527893,921.868530 556.494019,920.873901 
	C583.152161,919.609253 609.373413,915.320251 635.016846,907.555603 
	C673.249146,895.979126 708.070862,877.756226 739.930481,853.907104 
	C756.009766,841.870605 770.926147,828.332703 784.438354,813.444031 
	C805.590027,790.137939 823.219788,764.345642 836.980896,735.990723 
	C842.546570,724.522522 847.189026,712.671936 851.013916,700.504395 
	C851.646118,698.493225 851.959106,696.265564 854.000000,695.000000 
"/>
<path fill="none" opacity="1.000000" stroke="#7A9E7E" stroke-linecap="round" stroke-linejoin="round" stroke-width="4.000000"
	d="
M329.500000,230.500000 
	C329.088165,231.127411 329.802673,231.749542 328.602844,232.638748 
	C315.615540,242.263870 302.372467,251.523392 289.884460,261.860443 
	C276.105865,273.265778 263.150208,285.415100 250.982864,298.484039 
	C231.816635,319.070435 215.083771,341.482086 200.526382,365.515991 
	C191.007660,381.231140 182.751068,397.611145 175.490433,414.495880 
	C163.975296,441.274475 154.870667,468.810638 149.527954,497.505219 
	C146.143127,515.684387 144.490250,534.079651 142.929199,552.494019 
	C141.785324,565.987427 141.303482,579.486694 141.550888,592.999084 
	C141.960159,615.351990 144.579498,637.459045 148.328033,659.529236 
	C152.460281,683.858582 159.047653,707.450867 167.622025,730.454529 
	C178.218719,758.883545 192.139572,785.703796 208.940262,811.039612 
	C218.971207,826.166443 229.781082,840.714966 241.623749,854.392822 
	C253.963745,868.645081 267.341248,881.960938 281.434387,894.573303 
	C299.987457,911.177124 319.860779,925.880127 340.962402,939.060181 
	C359.058350,950.362915 377.925354,960.087952 397.500854,968.498047 
	C423.859985,979.822693 451.424286,986.890991 479.472626,992.633667 
	C508.604004,998.598022 538.008179,1000.158203 567.490601,998.796753 
	C597.163757,997.426331 626.414490,992.448486 655.006531,984.022278 
	C685.007690,975.180725 713.539185,962.869019 740.963928,947.933777 
	C743.423279,946.594360 745.788452,945.873352 748.500000,946.000000 
"/>
<path fill="none" opacity="1.000000" stroke="#7A9E7E" stroke-linecap="round" stroke-linejoin="round" stroke-width="3.000000"
	d="
M579.000000,229.500000 
	C601.539917,218.191177 615.436035,200.010559 620.378052,175.475433 
	C624.679016,154.122894 618.612671,134.786926 605.938171,117.545441 
	C594.417664,101.873764 578.839478,92.933868 559.533630,89.320305 
	C536.736206,85.053215 516.962219,90.348297 498.969452,104.461037 
	C485.181824,115.275452 475.965515,128.951782 472.090820,146.020615 
	C470.988983,150.874481 468.898499,155.907730 471.500000,161.000000 
"/>
<path fill="none" opacity="1.000000" stroke="#7A9E7E" stroke-linecap="round" stroke-linejoin="round" stroke-width="3.000000"
	d="
M574.000000,206.500000 
	C588.250916,198.417297 595.972473,185.653687 598.335938,169.975266 
	C600.618774,154.832535 595.961792,141.152695 585.968506,129.527069 
	C576.915283,118.995064 565.174988,113.462143 551.506348,111.456917 
	C531.466675,108.517059 509.097656,119.622871 500.048035,137.524277 
	C497.647766,142.272278 493.837708,146.589188 494.512115,152.498611 
	C494.589355,153.175491 494.833313,153.833344 494.999969,154.500000 
"/>
<path fill="none" opacity="1.000000" stroke="#7A9E7E" stroke-linecap="round" stroke-linejoin="round" stroke-width="4.000000"
	d="
M564.500000,787.500000 
	C556.549988,775.257874 545.471375,773.064453 533.032593,780.057922 
	C523.971924,785.151978 524.546204,797.925293 533.444275,803.587585 
	C539.977234,807.744934 547.623596,808.130127 554.514832,810.963989 
	C565.515259,815.487732 567.840942,822.585083 565.029419,832.508362 
	C563.987610,836.185486 561.263245,838.853943 558.410828,840.327332 
	C549.757385,844.796753 533.987854,844.550659 527.030396,834.977905 
	C525.626709,833.046570 525.553467,830.062317 522.500000,829.500000 
"/>
<path fill="none" opacity="1.000000" stroke="#7A9E7E" stroke-linecap="round" stroke-linejoin="round" stroke-width="4.000000"
	d="
M577.000000,248.000000 
	C577.693726,242.187256 579.620605,236.340073 577.919434,230.523575 
	C576.043457,224.109436 575.626526,217.568497 574.941589,211.006104 
	C574.147644,203.400421 566.763245,196.354935 555.497925,196.085632 
	C547.343323,195.890701 539.171692,195.723267 530.993408,196.423218 
	C523.093323,197.099350 514.590454,202.255112 514.000427,215.000015 
	C513.838379,218.500244 514.285889,222.009979 513.559753,225.512390 
	C513.266357,226.927628 512.967041,228.033585 511.500000,228.500000 
"/>
<path fill="none" opacity="1.000000" stroke="#7A9E7E" stroke-linecap="round" stroke-linejoin="round" stroke-width="4.000000"
	d="
M515.500000,248.000000 
	C515.333313,244.500000 515.481140,240.948761 514.921326,237.512817 
	C514.202332,233.099579 512.916138,229.279968 508.079559,226.842148 
	C498.113007,221.818634 489.306335,215.193130 484.412750,204.540085 
	C483.946014,203.524002 482.259155,203.068390 481.671936,202.693253 
	C484.453400,191.929031 491.744446,188.534607 500.499695,186.998260 
	C507.666443,185.740662 513.345703,179.000504 514.046936,171.504395 
	C514.775513,163.716553 509.035858,156.751740 502.512726,154.953857 
	C500.266083,154.334641 498.128082,154.357819 496.006226,155.019989 
	C481.793152,159.455490 467.084717,162.090363 452.986023,166.959564 
	C447.652313,168.801651 442.167694,170.232483 439.009430,175.505661 
	C435.930573,180.646301 436.364899,185.816833 438.990601,191.004745 
	C441.496490,195.955811 445.450104,198.707596 451.000854,198.983002 
	C455.403168,199.201416 459.747711,198.702347 464.000000,197.500000 
"/>
<path fill="none" opacity="1.000000" stroke="#7A9E7E" stroke-linecap="round" stroke-linejoin="round" stroke-width="4.000000"
	d="
M371.000000,558.000000 
	C366.500000,574.666687 361.944763,591.318787 357.550751,608.013367 
	C356.756409,611.031372 355.578003,613.419006 352.500000,614.500000 
"/>
<path fill="none" opacity="1.000000" stroke="#7A9E7E" stroke-linecap="round" stroke-linejoin="round" stroke-width="5.000000"
	d="
M525.000000,334.500000 
	C522.161682,337.086151 522.089233,340.653351 522.059937,344.000519 
	C521.924316,359.499329 521.996887,375.000000 522.020874,390.499969 
	C522.021423,390.833557 522.333313,391.166656 522.500000,391.500000 
"/>
<path fill="none" opacity="1.000000" stroke="#7A9E7E" stroke-linecap="round" stroke-linejoin="round" stroke-width="4.000000"
	d="
M296.000000,559.000000 
	C299.166656,570.833313 302.300934,582.675476 305.514923,594.495911 
	C306.926300,599.686707 308.632202,604.800232 309.938385,610.015442 
	C310.502777,612.268921 311.336243,614.031311 313.500000,615.000000 
"/>
<path fill="none" opacity="1.000000" stroke="#7A9E7E" stroke-linecap="round" stroke-linejoin="round" stroke-width="5.000000"
	d="
M568.000000,330.000000 
	C568.000000,346.000000 567.919617,362.000732 568.067322,377.999390 
	C568.097107,381.227814 567.386597,383.976440 565.500000,386.500000 
"/>
<path fill="none" opacity="1.000000" stroke="#7A9E7E" stroke-linecap="round" stroke-linejoin="round" stroke-width="4.000000"
	d="
M522.500000,327.500000 
	C522.204407,330.682373 524.287231,333.174194 526.115540,334.875824 
	C535.691772,343.788452 540.974060,355.685638 548.463440,366.026459 
	C552.337891,371.375977 555.806030,377.018585 559.525818,382.482452 
	C560.177368,383.439514 561.021667,384.576447 562.024292,384.931305 
	C567.242798,386.778198 567.528687,391.024658 567.500000,395.500000 
"/>
<path fill="none" opacity="1.000000" stroke="#7A9E7E" stroke-linecap="round" stroke-linejoin="round" stroke-width="4.000000"
	d="
M334.000000,556.500000 
	C330.426422,568.029663 325.942078,579.270325 323.008026,591.002014 
	C321.445160,597.251221 320.030518,603.549927 317.473999,609.488831 
	C315.925262,613.086609 312.228424,615.886108 313.500000,620.500000 
"/>
<path fill="none" opacity="1.000000" stroke="#7A9E7E" stroke-linecap="round" stroke-linejoin="round" stroke-width="4.000000"
	d="
M333.500000,564.000000 
	C337.459961,565.233337 337.797943,568.889526 338.433014,572.013611 
	C340.848419,583.895569 345.068542,595.269409 348.004547,606.998840 
	C348.443298,608.751831 348.566376,610.680969 350.012726,611.985901 
	C352.558746,614.282898 353.381378,617.235107 353.500000,620.500000 
"/>
<path fill="none" opacity="1.000000" stroke="#7A9E7E" stroke-linecap="round" stroke-linejoin="round" stroke-width="5.000000"
	d="
M787.500000,586.000000 
	C775.333313,586.000000 763.166687,586.000000 751.000000,586.000000 
"/>
<path fill="none" opacity="1.000000" stroke="#7A9E7E" stroke-linecap="round" stroke-linejoin="round" stroke-width="5.000000"
	d="
M492.500000,157.500000 
	C493.476135,160.285721 493.194733,163.208710 492.921753,165.992325 
	C492.201569,173.336166 494.500488,179.791550 498.000000,186.000000 
"/>
</svg>