<svg xmlns="http://www.w3.org/2000/svg" xmlns:xlink="http://www.w3.org/1999/xlink" width="1080" zoomAndPan="magnify" viewBox="0 0 810 809.999993" height="1080" preserveAspectRatio="xMidYMid meet" version="1.0"><defs><clipPath id="3f0c1654c3"><path d="M 581 634 L 657.667969 634 L 657.667969 680 L 581 680 Z M 581 634 " clip-rule="nonzero"/></clipPath></defs><rect x="-81" width="972" fill="#ffffff" y="-80.999999" height="971.999992" fill-opacity="1"/><rect x="-81" width="972" fill="#f5f2ec" y="-80.999999" height="971.999992" fill-opacity="1"/><path stroke-linecap="round" transform="matrix(0.411223, 0, 0, 0.411383, -31.538839, -49.400068)" fill="none" stroke-linejoin="round" d="M 678.995701 1740.995672 C 681.949923 1733.589258 682.006918 1725.803027 682.006918 1717.997805 C 681.997419 1535.999408 681.940424 1354.001011 682.044915 1172.002614 C 682.073412 1129.662611 682.84284 1087.332102 682.956829 1045.001594 C 683.127813 986.329496 683.745255 927.657399 682.719351 869.004292 C 682.111408 833.64341 683.37479 798.330004 683.05182 762.997608 C 682.833341 738.32855 683.90674 713.640501 683.631266 688.99993 C 683.336793 663.34335 683.05182 637.667779 683.080317 612.001703 C 683.127813 567.335326 683.811749 522.668948 683.963734 478.002571 C 684.125219 428.664454 683.878242 379.335834 684.11572 329.997718 C 684.153717 321.11002 681.807437 313.675119 676.041478 306.961869 C 661.213371 289.727712 646.119288 272.616995 636.173722 251.917016 C 633.827442 247.036378 629.134883 248.166331 627.045079 248.394221 C 609.424233 250.350274 600.001118 261.858703 600.001118 280.004419 C 600.001118 805.337612 599.991619 1330.670805 600.020116 1856.003998 C 600.020116 1871.965772 604.161728 1886.199381 618.001928 1895.998638 " stroke="#000000" stroke-width="3" stroke-opacity="1" stroke-miterlimit="4"/><path stroke-linecap="round" transform="matrix(0.411223, 0, 0, 0.411383, -31.538839, -49.400068)" fill="none" stroke-linejoin="round" d="M 1065.998863 303.999303 C 1066.739793 305.936365 1067.271743 307.873428 1067.015267 310.000398 C 1064.725982 329.0007 1066.98677 348.001003 1066.98677 367.001305 C 1067.015267 482.332474 1067.034265 597.663644 1066.967772 713.004309 C 1066.958273 740.33208 1067.290741 767.707328 1066.568809 794.987622 C 1065.770884 824.708235 1068.316645 854.352884 1066.891779 883.997534 C 1065.789882 907.004896 1065.770884 930.002763 1066.074855 953.00063 C 1067.338237 1049.331498 1067.613711 1145.671861 1066.853782 1242.002728 C 1065.020454 1475.997954 1066.625804 1710.002676 1066.008362 1943.997902 C 1065.998863 1948.755099 1065.428916 1953.60725 1068.003174 1958.003622 " stroke="#000000" stroke-width="3" stroke-opacity="1" stroke-miterlimit="4"/><path stroke-linecap="round" transform="matrix(0.411223, 0, 0, 0.411383, -31.538839, -49.400068)" fill="none" stroke-linejoin="round" d="M 1146.997757 1156.999877 C 1146.142837 1154.531072 1144.404501 1152.935844 1142.115216 1151.957818 C 1138.676538 1153.99933 1140.063408 1157.275244 1140.053909 1160.000424 C 1139.968417 1194.335803 1139.93992 1228.671182 1140.025412 1262.997065 C 1140.063408 1276.176685 1142.713659 1274.448522 1151.006381 1274.040219 C 1172.1039 1273.00522 1193.030435 1270.327517 1214.032963 1268.333482 C 1240.392988 1265.826695 1266.715016 1262.911607 1292.961052 1259.673674 C 1310.648391 1257.489731 1328.449719 1255.600146 1346.080064 1252.438177 C 1353.441873 1251.10882 1361.24064 1250.073821 1368.991913 1249.817445 C 1380.542828 1249.428134 1383.839019 1245.620477 1383.953008 1233.998103 C 1384.152489 1211.664914 1384.589448 1189.331726 1384.826926 1166.998537 C 1385.377874 1116.008221 1384.199985 1064.979923 1385.187892 1013.999102 C 1386.650754 938.662571 1385.605853 863.335536 1385.919323 787.999005 C 1386.06181 755.002479 1385.919323 721.977466 1384.864922 688.99993 C 1383.145584 635.331909 1384.494457 581.663889 1384.114493 527.995869 C 1384.066997 521.700417 1382.585136 518.415007 1376.087746 515.775285 C 1329.152653 496.718011 1281.448133 479.692752 1233.933594 462.173733 C 1207.146109 452.289018 1180.501111 441.920038 1153.020192 433.924908 C 1141.127308 430.468581 1140.006414 430.952847 1140.006414 443.002514 C 1139.996914 663.333854 1139.996914 883.665195 1140.025412 1103.996535 C 1140.025412 1107.348413 1139.398471 1110.795244 1141.00382 1114.00469 " stroke="#000000" stroke-width="3" stroke-opacity="1" stroke-miterlimit="4"/><path stroke-linecap="round" transform="matrix(0.411223, 0, 0, 0.411383, -31.538839, -49.400068)" fill="none" stroke-linejoin="round" d="M 1432.996903 587.997324 C 1432.664434 586.335628 1432.094487 584.673932 1432.037493 583.002741 C 1430.745614 543.67278 1429.007277 504.352315 1430.128172 465.003363 C 1430.394147 455.707363 1426.831982 451.453423 1418.149797 447.664757 C 1395.161955 437.628115 1371.955634 428.09473 1348.977292 418.058089 C 1316.40485 403.833975 1283.70892 389.904218 1250.993992 376.021938 C 1208.361995 357.933194 1165.587512 340.17679 1123.041007 321.907634 C 1107.500466 315.232365 1091.90293 308.7565 1076.001423 303.002286 C 1068.012674 300.125179 1041.339178 309.10783 1038.137979 316.058465 C 1037.245062 317.986032 1037.995492 320.663736 1037.995492 322.999605 C 1037.995492 861.996684 1038.01449 1401.003258 1037.900501 1940.000337 C 1037.900501 1948.907025 1042.070609 1952.619728 1049.831381 1956.351422 C 1062.902153 1962.627883 1074.728543 1959.086098 1085.908993 1953.806653 C 1142.010725 1927.295487 1198.558916 1901.762347 1254.945621 1875.877878 C 1309.69848 1850.73405 1363.928888 1824.469764 1418.985718 1799.962128 C 1426.594504 1796.572269 1430.479639 1791.473237 1430.270659 1781.996824 C 1429.558226 1750.00681 1429.928691 1717.997805 1430.04268 1685.998296 C 1430.071177 1677.661332 1430.726616 1669.333863 1430.973593 1660.996899 C 1431.078083 1657.436123 1431.610033 1654.625483 1435.989122 1653.932319 C 1441.660089 1653.039751 1442.030555 1648.605397 1442.021055 1644.000127 C 1441.97356 1624.002807 1441.726583 1603.995992 1442.135045 1583.998673 C 1442.29653 1576.373864 1438.477888 1573.810105 1431.999496 1573.002995 " stroke="#000000" stroke-width="3" stroke-opacity="1" stroke-miterlimit="4"/><path stroke-linecap="round" transform="matrix(0.411223, 0, 0, 0.411383, -31.538839, -49.400068)" fill="none" stroke-linejoin="round" d="M 629.999301 249.998944 C 627.425043 254.395316 628.004489 259.247467 628.004489 264.004664 C 627.99499 756.996513 628.004489 1249.997858 628.004489 1742.999203 " stroke="#000000" stroke-width="3" stroke-opacity="1" stroke-miterlimit="4"/><path stroke-linecap="round" transform="matrix(0.411223, 0, 0, 0.411383, -31.538839, -49.400068)" fill="none" stroke-linejoin="round" d="M 1154.996006 1166.998537 C 1162.205829 1193.955987 1159.289603 1221.644583 1160.211016 1249.561069 C 1177.451898 1251.270242 1193.761866 1248.75396 1209.967344 1246.769421 C 1218.972499 1245.658459 1228.101142 1245.250156 1237.039802 1244.51901 C 1255.344584 1243.028232 1273.630367 1240.958234 1291.982644 1239.742822 C 1316.385852 1238.128604 1340.656073 1234.577323 1365.011786 1232.080032 C 1369.191394 1231.652739 1370.103308 1229.696685 1370.036814 1226.002974 C 1369.590356 1201.305429 1371.699158 1176.636371 1371.756153 1151.995799 C 1372.193112 951.671274 1372.00313 751.337253 1372.00313 551.003232 C 1372.00313 533.958983 1371.803649 534.471735 1355.037723 527.910411 C 1296.979174 505.18791 1237.847227 485.494444 1178.990753 465.022354 C 1173.414777 463.085292 1167.705813 461.528046 1162.215328 459.837864 C 1158.339692 462.733962 1160.078029 466.655563 1160.078029 469.997945 C 1159.973539 543.330946 1160.021034 616.663946 1159.992537 689.996947 C 1159.973539 720.334761 1158.881141 750.701061 1159.403592 780.991398 C 1159.96404 813.693567 1158.995131 846.329268 1158.995131 879.002952 C 1159.00463 916.671217 1158.453681 954.339482 1159.204111 991.998252 C 1159.650569 1013.999102 1157.883735 1035.980961 1159.755059 1058.019792 C 1160.70497 1069.233863 1158.881141 1080.58087 1159.660068 1092.022832 C 1160.543485 1105.098002 1147.719689 1115.457487 1133.005571 1116.055698 C 1128.550489 1116.245606 1123.449468 1114.175608 1119.450344 1119.815877 C 1129.414908 1123.310186 1139.474463 1123.481103 1148.935575 1120.774913 C 1164.732592 1116.255101 1180.444117 1112.903224 1197.010561 1113.871755 C 1204.923318 1114.327534 1212.019152 1116.81533 1218.972499 1120.062758 C 1222.990622 1121.952343 1225.403395 1124.592065 1224.197008 1130.042427 C 1222.753144 1136.556273 1218.203071 1133.128433 1215.001872 1133.992515 C 1210.052836 1135.340862 1205.407773 1132.758112 1201.095178 1131.628159 C 1185.535639 1127.554631 1170.964007 1129.928482 1158.178207 1138.274941 C 1144.660977 1147.105667 1129.889863 1141.978149 1116.002167 1144.997687 " stroke="#000000" stroke-width="3" stroke-opacity="1" stroke-miterlimit="4"/><path stroke-linecap="round" transform="matrix(0.411223, 0, 0, 0.411383, -31.538839, -49.400068)" fill="none" stroke-linejoin="round" d="M 1446.001182 412.997039 C 1464.885409 398.241182 1477.481226 378.234367 1491.701391 357.59136 C 1496.441446 369.498596 1495.501034 380.959548 1494.760103 391.983711 C 1493.83869 405.676083 1494.095166 419.330473 1494.057169 433.003854 C 1493.981177 463.332172 1494.399137 493.669986 1494.845595 523.998305 C 1497.258369 688.325756 1495.529531 852.662703 1495.985488 1016.999649 C 1496.080479 1051.002689 1496.004487 1084.996233 1496.004487 1118.999273 C 1496.004487 1146.0042 1496.004487 1172.999632 1496.004487 1200.004559 C 1496.004487 1346.67056 1496.004487 1493.336561 1495.975989 1640.002562 C 1495.975989 1644.408429 1496.887904 1649.004204 1494.000175 1653.001769 " stroke="#000000" stroke-width="3" stroke-opacity="1" stroke-miterlimit="4"/><path stroke-linecap="round" transform="matrix(0.411223, 0, 0, 0.411383, -31.538839, -49.400068)" fill="none" stroke-linejoin="round" d="M 1303.001609 382.004042 C 1306.668265 384.529819 1310.33492 381.928079 1314.001576 381.918583 C 1330.862493 381.861611 1347.371943 384.957113 1364.004881 386.989129 C 1377.997067 388.707797 1391.998752 390.331511 1406.000438 392.002702 C 1415.689528 393.151646 1425.160139 395.876826 1435.001215 396.028753 C 1440.111735 396.104716 1444.908784 395.933799 1449.050395 392.050179 C 1461.788699 380.076475 1475.30593 368.862404 1485.090011 354.05907 C 1486.05892 352.606273 1485.773947 351.362375 1486.134913 349.34935 C 1472.826663 344.820042 1458.701489 344.392749 1444.975278 342.142339 C 1426.698994 339.151287 1408.31822 336.616014 1389.956444 334.346612 C 1372.981538 332.248128 1355.987634 329.959736 1339.041225 327.690335 C 1321.021417 325.287998 1302.925616 323.151532 1284.924806 320.473828 C 1271.455071 318.470298 1257.681364 317.112455 1244.031146 315.678649 C 1225.3464 313.722596 1206.671154 311.282278 1188.014906 308.86095 C 1143.426092 303.087744 1098.675794 298.900272 1054.020487 293.80124 C 1025.684648 290.572803 997.301313 287.591246 968.955975 284.362809 C 949.007848 282.093408 929.002726 279.861988 909.026102 277.735017 C 891.633235 275.873918 874.287864 272.787912 856.942492 270.452043 C 841.943401 268.429522 826.982305 266.065167 812.030709 263.814756 C 792.310561 260.842695 772.590413 257.775679 752.91776 254.471279 C 738.070654 251.983483 722.957573 250.293302 708.005977 247.938441 C 691.658012 245.374683 675.224555 243.418629 658.962082 240.190192 C 652.844656 238.974781 646.290272 239.392578 639.992363 239.326111 C 635.66077 239.278634 629.951806 240.949825 630.996708 247.995414 " stroke="#000000" stroke-width="3" stroke-opacity="1" stroke-miterlimit="4"/><path stroke-linecap="round" transform="matrix(0.411223, 0, 0, 0.411383, -31.538839, -49.400068)" fill="none" stroke-linejoin="round" d="M 1307.99814 383.998077 C 1320.764941 395.705909 1337.217396 399.428107 1353.061908 403.795993 C 1374.890859 409.806583 1397.299255 412.835617 1419.983125 414.269423 C 1427.344933 414.734698 1434.507261 416.19699 1442.021055 415.161991 C 1448.024492 414.335891 1449.601344 416.500843 1448.917408 424.989733 C 1447.112577 447.322922 1447.122076 469.74157 1448.299966 491.979804 C 1450.38977 531.6516 1451.387176 571.361377 1453.638465 611.023677 C 1455.234315 639.253511 1454.521882 667.682749 1452.204099 696.017033 C 1451.016711 710.582981 1452.346586 725.338838 1451.938124 739.999741 C 1450.152292 804.321604 1448.993401 868.662457 1447.378552 932.98432 C 1446.609125 963.663968 1447.635028 994.372103 1445.896692 1024.994779 C 1441.764579 1097.976449 1443.920877 1171.015092 1444.376834 1243.996763 C 1444.775797 1308.992799 1446.8751 1373.998331 1448.57544 1438.984872 C 1449.31637 1467.328651 1448.090985 1495.748393 1450.285279 1523.978228 C 1452.204099 1548.675772 1450.304278 1573.439784 1452.441577 1597.956916 C 1453.961434 1615.371485 1453.324994 1632.662615 1453.951935 1650.001222 C 1454.018429 1652.042733 1454.122919 1653.818374 1456.003742 1654.995804 " stroke="#000000" stroke-width="3" stroke-opacity="1" stroke-miterlimit="4"/><path stroke-linecap="round" transform="matrix(0.411223, 0, 0, 0.411383, -31.538839, -49.400068)" fill="none" stroke-linejoin="round" d="M 696.996511 320.996075 C 702.069034 337.014821 708.072471 352.796181 708.024975 370.001852 C 707.939483 400.330171 708.319447 430.667985 707.929984 460.996303 C 707.22705 514.664323 706.961075 568.370325 705.431719 621.981372 C 704.225332 664.340367 705.678695 706.708857 703.797872 748.991888 C 701.413596 802.659908 703.246924 856.356414 701.831557 909.995948 C 697.841931 1061.656531 699.969731 1213.336105 700.62517 1364.996689 C 700.872147 1422.310943 699.893739 1479.720152 702.392004 1536.98693 C 704.196835 1578.348908 702.11653 1619.729876 704.263328 1660.987403 C 707.721004 1727.664126 704.67179 1794.340849 706.172649 1860.998581 C 706.419626 1872.250634 706.989572 1882.163835 692.009479 1883.122871 C 690.61311 1883.208329 688.79878 1884.708603 688.086347 1886.047455 C 681.76944 1897.878727 669.962049 1897.81226 659.019077 1900.091156 C 644.60893 1903.091704 630.369767 1902.408035 615.969119 1900.176615 C 612.596935 1899.654368 608.844788 1899.037167 607.182444 1896.862719 C 597.626341 1884.366768 584.270595 1889.513277 573.052149 1890.576762 C 560.760303 1891.744697 548.287974 1893.767218 536.015126 1896.05561 C 517.776839 1899.454964 499.23458 1900.423496 480.920299 1903.528492 C 469.141405 1905.532023 457.001545 1906.642985 444.994673 1907.972341 C 423.954148 1910.308211 402.856629 1912.197796 381.996588 1915.976966 C 381.027679 1916.157379 380.001775 1915.995957 379.004369 1915.995957 " stroke="#000000" stroke-width="3" stroke-opacity="1" stroke-miterlimit="4"/><path stroke-linecap="round" transform="matrix(0.411223, 0, 0, 0.411383, -31.538839, -49.400068)" fill="none" stroke-linejoin="round" d="M 1432.996903 670.996645 C 1429.178261 667.910639 1427.021964 664.093486 1426.964969 659.00395 C 1426.727491 639.661813 1426.338028 620.329172 1425.99606 600.996531 C 1425.89157 595.147362 1426.822483 589.09879 1433.994309 589.260212 C 1440.653184 589.402643 1442.030555 595.137867 1442.021055 600.996531 C 1441.97356 620.329172 1441.888068 639.671309 1442.097048 658.994455 C 1442.144544 662.859084 1441.156637 667.863162 1438.876851 668.632289 C 1430.926097 671.291002 1432.246473 677.092694 1431.933003 682.998835 C 1427.639406 764.972652 1430.337152 847.003442 1430.156669 928.996251 C 1429.691213 1139.66127 1430.023682 1350.335786 1429.957188 1561.000806 C 1429.947689 1577.741202 1423.516793 1593.987837 1425.948565 1611.0036 C 1427.648905 1622.929827 1428.693807 1634.932016 1427.952876 1647.000674 C 1427.753395 1650.238607 1430.669621 1650.998239 1431.999496 1653.001769 " stroke="#000000" stroke-width="3" stroke-opacity="1" stroke-miterlimit="4"/><path stroke-linecap="round" transform="matrix(0.411223, 0, 0, 0.411383, -31.538839, -49.400068)" fill="none" stroke-linejoin="round" d="M 1160.999442 1740.995672 C 1177.166924 1738.052097 1191.70056 1730.427288 1206.965626 1724.910459 C 1247.735798 1710.183088 1288.363483 1695.066406 1328.981669 1679.959219 C 1340.760563 1675.572343 1352.339976 1670.672715 1363.995382 1665.991481 C 1368.497959 1664.187354 1370.065312 1660.892449 1370.08431 1656.002317 C 1370.321788 1593.997332 1374.415903 1531.963862 1371.547173 1470.025346 C 1369.732843 1430.970751 1371.053219 1391.99212 1370.008317 1353.003994 C 1369.913326 1349.642621 1369.913326 1346.328725 1369.086904 1342.976848 C 1367.95651 1338.381073 1365.07828 1337.032726 1361.012662 1338.048734 C 1337.255393 1343.983361 1312.928177 1347.059871 1288.904932 1351.475234 C 1268.367861 1355.254405 1247.773795 1359.27096 1227.018243 1362.148068 C 1210.584786 1364.426964 1194.246321 1367.626915 1178.050341 1371.216178 C 1172.711843 1372.393608 1166.109963 1369.592464 1162.063342 1375.052321 C 1157.551266 1381.14837 1160.087528 1388.374372 1160.144523 1395.002163 C 1160.581482 1446.020966 1155.613448 1497.020777 1158.235202 1547.992103 C 1161.246419 1606.664201 1158.89064 1665.345794 1160.211016 1723.9989 C 1160.476991 1735.792191 1158.501177 1746.379566 1151.889798 1755.922447 C 1149.648008 1759.169875 1147.833679 1762.569229 1146.000351 1765.99707 " stroke="#000000" stroke-width="3" stroke-opacity="1" stroke-miterlimit="4"/><path stroke-linecap="round" transform="matrix(0.411223, 0, 0, 0.411383, -31.538839, -49.400068)" fill="none" stroke-linejoin="round" d="M 710.00079 361.00021 C 727.726125 365.472545 745.983411 365.842866 763.974722 368.197726 C 785.623189 371.046347 807.44264 372.233272 829.06261 375.585149 C 837.15585 376.829047 845.657552 377.474735 853.98827 378.110927 C 871.390636 379.449779 888.698011 381.747666 906.033883 383.656242 C 919.988073 385.203993 933.999257 386.666285 948.010441 387.900688 C 975.700341 390.341006 1003.380742 392.800316 1031.004148 395.971781 C 1032.647494 396.161689 1034.328836 396.000267 1036.000679 396.000267 " stroke="#000000" stroke-width="3" stroke-opacity="1" stroke-miterlimit="4"/><path stroke-linecap="round" transform="matrix(0.411223, 0, 0, 0.411383, -31.538839, -49.400068)" fill="none" stroke-linejoin="round" d="M 707.996478 348.99802 C 708.661415 340.243258 713.439467 337.764958 721.998163 337.802939 C 746.20189 337.888398 770.044652 341.23078 794.039399 343.576145 C 815.032427 345.627152 835.977961 348.399809 856.942492 350.583752 C 882.647079 353.261456 907.192774 349.539258 932.004444 345.019446 C 934.417218 344.573162 936.905984 344.430731 938.986289 342.977934 C 939.746217 342.446192 940.335162 341.667568 941.503552 340.499634 C 930.047628 336.815417 918.458716 335.713951 907.002792 334.004778 C 887.700604 331.118175 868.293926 328.867765 848.953742 326.379969 C 835.389016 324.623319 821.634308 323.607311 808.003088 321.983597 C 792.975499 320.188966 777.976407 317.891078 762.958317 316.371814 C 748.329691 314.890531 733.701064 312.735074 718.996445 312.146359 C 711.587141 311.852002 704.481808 309.838976 697.015509 309.592096 C 691.809998 309.421179 687.30742 305.594531 683.726257 300.182151 C 673.001764 283.973497 660.975893 268.647916 646.964708 255.031508 C 644.276461 252.420272 642.082167 247.947937 637.000144 250.995961 " stroke="#000000" stroke-width="3" stroke-opacity="1" stroke-miterlimit="4"/><path stroke-linecap="round" transform="matrix(0.411223, 0, 0, 0.411383, -31.538839, -49.400068)" fill="none" stroke-linejoin="round" d="M 1123.00301 1115.998725 C 1120.856212 1106.731211 1122.528055 1097.330762 1122.005604 1087.99678 C 1121.815622 1084.654398 1122.461561 1081.264539 1121.027196 1077.988625 C 1118.585925 1072.367346 1116.638608 1065.787032 1109.010824 1066.166848 C 1102.617924 1066.489692 1096.434005 1075.026059 1095.968549 1081.995686 C 1092.985829 1127.298255 1094.068727 1172.667293 1094.220713 1217.998348 C 1094.258709 1229.611227 1092.938333 1242.173646 1102.000482 1252.001388 " stroke="#000000" stroke-width="3" stroke-opacity="1" stroke-miterlimit="4"/><path stroke-linecap="round" transform="matrix(0.411223, 0, 0, 0.411383, -31.538839, -49.400068)" fill="none" stroke-linejoin="round" d="M 1108.003918 1064.001896 C 1096.339014 1060.374652 1086.231963 1069.300331 1086.060979 1083.999216 C 1085.814002 1106.332404 1085.804503 1128.665593 1086.05148 1150.998782 C 1086.345952 1178.336048 1084.883089 1205.692306 1087.01089 1233.001086 C 1087.295863 1236.666312 1086.953895 1240.587913 1088.141284 1243.949286 C 1091.019513 1252.05836 1097.051447 1254.508175 1108.003918 1253.007901 C 1116.19215 1251.887443 1119.355353 1244.99378 1119.678322 1238.98319 C 1121.312169 1208.692853 1122.699039 1178.364535 1121.872616 1148.00773 C 1121.853618 1147.314566 1120.66623 1146.668878 1120.998698 1146.0042 " stroke="#000000" stroke-width="3" stroke-opacity="1" stroke-miterlimit="4"/><path stroke-linecap="round" transform="matrix(0.411223, 0, 0, 0.411383, -31.538839, -49.400068)" fill="none" stroke-linejoin="round" d="M 1454.996837 1657.996351 C 1448.185977 1664.177859 1445.944187 1672.068539 1445.963185 1681.003714 C 1446.048677 1714.664919 1446.305153 1748.335619 1445.839697 1781.996824 C 1445.668713 1794.511766 1449.401862 1794.388326 1459.005461 1794.160436 C 1468.153102 1793.932546 1477.215251 1792.888052 1485.95443 1790.808559 C 1502.112413 1786.96292 1501.998424 1786.478655 1501.998424 1770.00413 " stroke="#000000" stroke-width="3" stroke-opacity="1" stroke-miterlimit="4"/><path stroke-linecap="round" transform="matrix(0.411223, 0, 0, 0.411383, -31.538839, -49.400068)" fill="none" stroke-linejoin="round" d="M 688.998262 1883.996448 C 687.392912 1880.796497 688.029353 1877.349665 688.019854 1873.997788 C 687.981857 1847.667034 687.573395 1821.326785 688.181338 1795.005527 C 688.475811 1782.538062 685.702071 1770.421928 685.759066 1758.00194 C 685.787563 1749.921352 679.147687 1746.037732 671.985359 1744.043697 C 658.154658 1740.198059 644.950898 1743.530945 633.153005 1750.272682 C 623.473414 1755.799006 622.390516 1767.29794 622.295525 1777.002242 C 622.020051 1806.333543 620.690176 1835.712321 623.891375 1865.015136 C 625.145257 1876.504574 622.779979 1887.832591 619.996741 1898.999185 " stroke="#000000" stroke-width="3" stroke-opacity="1" stroke-miterlimit="4"/><g clip-path="url(#3f0c1654c3)"><path stroke-linecap="round" transform="matrix(0.411223, 0, 0, 0.411383, -31.538839, -49.400068)" fill="none" stroke-linejoin="round" d="M 1674.99618 1749.000298 C 1661.887411 1749.199701 1648.968624 1751.431121 1636.002341 1753.026349 C 1623.653501 1754.555109 1611.323658 1756.24529 1599.003315 1758.020931 C 1580.993006 1760.613176 1562.944701 1763.281384 1544.934392 1765.455832 C 1531.445659 1767.098536 1517.937927 1769.975644 1503.983737 1769.491378 C 1496.583932 1769.235002 1495.149567 1767.231472 1493.848189 1761.030974 C 1490.343018 1744.34755 1491.615899 1727.654631 1493.126257 1711.009189 C 1494.57962 1695.018929 1493.363735 1678.895734 1496.004487 1663.000429 " stroke="#000000" stroke-width="3" stroke-opacity="1" stroke-miterlimit="4"/></g><path stroke-linecap="round" transform="matrix(0.411223, 0, 0, 0.411383, -31.538839, -49.400068)" fill="none" stroke-linejoin="round" d="M 1502.99583 1768.997617 C 1505.266117 1746.360575 1503.765258 1723.666561 1503.774757 1701.001033 C 1503.784256 1693.73705 1501.988925 1686.397103 1501.988925 1679.000184 C 1501.988925 1657.796948 1491.074449 1648.890259 1470.014927 1653.087228 C 1466.965713 1653.694934 1463.318056 1652.944797 1461.000273 1656.002317 " stroke="#000000" stroke-width="3" stroke-opacity="1" stroke-miterlimit="4"/><path stroke-linecap="round" transform="matrix(0.411223, 0, 0, 0.411383, -31.538839, -49.400068)" fill="none" stroke-linejoin="round" d="M 678.995701 1749.997315 C 663.645142 1760.024461 647.544154 1763.870099 629.999301 1755.99841 " stroke="#000000" stroke-width="3" stroke-opacity="1" stroke-miterlimit="4"/><path stroke-linecap="round" transform="matrix(0.411223, 0, 0, 0.411383, -31.538839, -49.400068)" fill="none" stroke-linejoin="round" d="M 1119.003886 1119.99629 C 1113.997856 1120.281152 1108.687854 1112.589875 1103.909803 1120.94583 C 1101.307047 1125.494129 1100.95558 1138.350905 1104.992701 1143.003652 C 1107.699947 1146.118145 1107.690448 1146.137136 1115.983169 1144.845761 C 1107.215493 1136.964576 1106.18009 1128.656098 1113.997856 1119.99629 " stroke="#000000" stroke-width="3" stroke-opacity="1" stroke-miterlimit="4"/><path stroke-linecap="round" transform="matrix(0.411223, 0, 0, 0.411383, -31.538839, -49.400068)" fill="none" stroke-linejoin="round" d="M 1490.998457 1657.996351 C 1480.872407 1664.804556 1470.537378 1665.060931 1460.002867 1659.002864 " stroke="#000000" stroke-width="2" stroke-opacity="1" stroke-miterlimit="4"/><path stroke-linecap="round" transform="matrix(0.411223, 0, 0, 0.411383, -31.538839, -49.400068)" fill="none" stroke-linejoin="round" d="M 1373.997943 1318.003937 C 1363.254451 1321.384301 1352.036005 1322.552235 1340.979043 1323.767647 C 1326.559397 1325.353379 1312.415225 1328.505853 1298.062073 1330.452411 C 1282.702015 1332.522409 1267.265964 1334.915251 1251.991399 1337.95378 C 1233.069175 1341.713959 1213.918973 1344.201755 1194.920757 1347.525146 C 1181.05206 1349.95597 1167.088371 1352.652664 1153.001193 1353.972525 C 1142.609169 1354.950552 1140.006414 1357.580778 1140.006414 1367.997236 C 1139.996914 1493.336561 1139.673945 1618.66639 1140.272389 1743.99622 C 1140.395877 1769.111562 1138.65754 1772.805274 1166.081465 1762.217899 C 1235.78592 1735.29843 1305.575867 1708.635338 1375.099839 1681.250594 C 1382.243168 1678.439955 1384.237981 1674.945646 1384.104994 1667.995011 C 1383.782024 1651.340074 1383.639537 1634.65665 1384.066997 1618.001712 C 1385.31138 1569.670109 1386.973724 1521.348001 1385.900325 1472.997407 C 1384.912418 1428.008186 1383.411559 1383.018964 1384.066997 1338.001257 C 1384.152489 1332.503418 1381.16027 1327.632276 1381.872703 1321.982511 C 1382.585136 1316.399214 1377.85458 1318.421735 1374.995349 1318.003937 " stroke="#000000" stroke-width="3" stroke-opacity="1" stroke-miterlimit="4"/><path stroke-linecap="round" transform="matrix(0.411223, 0, 0, 0.411383, -31.538839, -49.400068)" fill="none" stroke-linejoin="round" d="M 1048.995459 1077.998121 C 1043.789948 1080.523898 1043.989429 1085.281095 1043.989429 1090.000311 C 1044.008427 1135.663706 1043.998928 1181.336596 1043.998928 1226.999991 C 1043.998928 1227.997008 1043.856442 1229.022512 1044.027426 1230.000538 C 1044.93934 1235.526863 1045.338303 1242.202132 1052.985085 1241.803325 C 1059.995426 1241.433004 1060.004925 1235.393927 1060.004925 1230.000538 C 1059.995426 1183.66297 1060.071419 1137.334897 1059.919433 1090.997328 C 1059.900435 1084.559444 1058.78904 1078.131056 1050.002365 1077.998121 " stroke="#000000" stroke-width="3" stroke-opacity="1" stroke-miterlimit="4"/></svg>