<svg xmlns="http://www.w3.org/2000/svg" xmlns:xlink="http://www.w3.org/1999/xlink" width="1080" zoomAndPan="magnify" viewBox="0 0 810 809.999993" height="1080" preserveAspectRatio="xMidYMid meet" version="1.0"><rect x="-81" width="972" fill="#ffffff" y="-80.999999" height="971.999992" fill-opacity="1"/><rect x="-81" width="972" fill="#f5f2ec" y="-80.999999" height="971.999992" fill-opacity="1"/><path fill="#000000" d="M 733.195312 382.953125 C 725.367188 414.625 715.339844 445.320312 707.628906 476.675781 C 711.585938 469.058594 713.074219 460.570312 716.121094 451.359375 C 717.851562 456 716.820312 459.433594 715.988281 462.605469 C 707.15625 496.269531 695.457031 529.078125 685.914062 562.535156 C 684.1875 568.582031 681.847656 569.671875 675.742188 568.519531 C 629.277344 559.761719 582.808594 551.03125 536.351562 542.226562 C 534.429688 541.859375 532.933594 542.164062 531.425781 543.289062 C 519.710938 552.019531 493.980469 549.476562 483.589844 535.882812 C 481.210938 532.765625 478.234375 531.242188 474.515625 530.308594 C 429.378906 518.976562 384.269531 507.535156 339.152344 496.125 C 329.234375 493.617188 327.03125 490.007812 330 480.230469 C 335.5 462.113281 341.140625 444.042969 346.808594 425.980469 C 357.96875 390.421875 368.902344 354.792969 379.0625 318.929688 C 382.664062 306.222656 386.4375 293.566406 389.882812 280.824219 C 391.019531 276.617188 393.023438 274.382812 397.554688 275 C 398.417969 275.117188 399.339844 274.863281 400.191406 275.019531 C 404.621094 275.828125 406.8125 273.917969 408.140625 269.679688 C 410.320312 262.726562 410.796875 262.175781 418.207031 262.808594 C 424.460938 263.347656 428.3125 261.867188 429.84375 255.382812 C 430.742188 251.585938 434.113281 251.480469 437.359375 251.664062 C 448.539062 252.308594 459.515625 254.421875 470.394531 256.835938 C 494.304688 262.144531 516.617188 271.292969 536.46875 285.878906 C 546.902344 293.546875 557.152344 301.46875 564.648438 312.257812 C 566.507812 314.933594 568.46875 315.011719 571.011719 313.652344 C 600.632812 297.8125 632.710938 294.453125 665.492188 295.855469 C 680.738281 296.503906 695.761719 299.617188 710.5 303.804688 C 713.785156 304.738281 715.417969 306.726562 715.648438 310.066406 C 715.746094 311.527344 716.226562 312.988281 716.15625 314.433594 C 715.96875 318.359375 717.714844 320.757812 721.367188 322.054688 C 726.511719 323.871094 729.335938 327.296875 728.679688 333.046875 C 728.425781 335.296875 729.664062 336.523438 731.746094 337.230469 C 733.96875 337.984375 736.105469 338.980469 738.285156 339.863281 C 743.402344 341.9375 743.9375 342.882812 742.4375 348.59375 C 739.449219 359.945312 736.351562 371.269531 733.195312 382.953125 M 629.460938 534.929688 C 626.191406 532.171875 622.058594 533.117188 618.328125 532.328125 C 622.105469 533.675781 625.675781 535.796875 630.378906 535.777344 C 634.433594 537.832031 638.722656 538.941406 643.222656 539.210938 C 639.085938 536.765625 634.636719 535.5 629.460938 534.929688 M 351.746094 423.074219 C 347.550781 434.980469 343.660156 446.976562 340.953125 459.328125 C 345.414062 447.292969 349.566406 435.167969 352.527344 422.105469 C 354.992188 416.253906 356.476562 410.117188 357.800781 403.933594 C 355.542969 410.039062 352.996094 416.054688 351.746094 423.074219 M 550.449219 306.703125 C 539.773438 295.605469 527.894531 286.183594 513.769531 279.726562 C 490.019531 268.863281 464.558594 264.25 439.261719 258.984375 C 436.574219 258.421875 435.214844 259.613281 434.449219 262.164062 C 431.539062 271.863281 428.441406 281.503906 425.53125 291.203125 C 417.390625 318.324219 409.402344 345.492188 401.175781 372.585938 C 393.113281 399.132812 384.828125 425.609375 376.652344 452.121094 C 373.902344 461.035156 373.914062 461.0625 383.511719 461.269531 C 426.367188 462.199219 463.460938 477.132812 494.355469 506.984375 C 497.789062 510.304688 500.699219 514.160156 503.945312 517.871094 C 506.699219 514.894531 507.074219 512.511719 507.71875 510.308594 C 516.9375 478.765625 526.039062 447.1875 535.28125 415.648438 C 544.109375 385.515625 553.035156 355.410156 562.019531 325.320312 C 562.882812 322.433594 562.449219 320.164062 560.542969 318.015625 C 557.324219 314.390625 554.101562 310.773438 550.449219 306.703125 M 573.476562 320.753906 C 571.042969 321.726562 570.039062 323.765625 569.335938 326.109375 C 561.136719 353.53125 552.871094 380.933594 544.710938 408.371094 C 535.46875 439.445312 526.3125 470.550781 517.128906 501.644531 C 515.371094 507.597656 513.648438 513.5625 511.882812 519.617188 C 513.058594 519.882812 513.539062 520.15625 513.878906 520.039062 C 517.902344 518.660156 521.890625 517.179688 525.914062 515.804688 C 553.902344 506.242188 582.53125 502.859375 611.847656 507.574219 C 624.597656 509.625 637.265625 512.285156 649.617188 516.140625 C 653.296875 517.289062 655.238281 516.339844 656.007812 512.648438 C 656.246094 511.503906 656.617188 510.382812 656.925781 509.25 C 662.339844 489.433594 667.777344 469.625 673.164062 449.804688 C 675.226562 442.199219 677.179688 434.566406 679.179688 426.949219 C 675.882812 432.980469 675.570312 440.117188 671.691406 447.085938 C 670.394531 443.617188 671.109375 441.496094 671.644531 439.445312 C 673.761719 431.351562 675.882812 423.257812 678.191406 415.214844 C 687.738281 381.933594 697.347656 348.667969 706.949219 315.398438 C 707.996094 311.765625 707.105469 309.8125 703.042969 308.785156 C 691.457031 305.851562 679.683594 304.453125 667.828125 303.386719 C 634.984375 300.425781 603.824219 306.554688 573.476562 320.753906 M 686.589844 504.246094 C 682.464844 517.871094 678.351562 531.496094 674.203125 545.113281 C 672.484375 550.753906 671.691406 551.097656 666.035156 550.207031 C 659.75 549.214844 653.871094 546.855469 647.832031 545.0625 C 629.8125 539.707031 611.753906 534.605469 593.234375 531.160156 C 567.121094 526.300781 541.113281 529.738281 515.085938 531.589844 C 509.484375 531.988281 504.511719 531.808594 499.605469 528.507812 C 467.953125 507.222656 433.113281 494.550781 395.222656 489.941406 C 380.800781 488.191406 366.480469 485.570312 352.121094 483.3125 C 346.390625 482.410156 344.890625 480.539062 346.296875 475.914062 C 354.839844 447.847656 362.855469 419.628906 371.027344 391.453125 C 381.199219 356.371094 390.367188 320.984375 401.863281 286.289062 C 402.253906 285.117188 402.917969 283.824219 402.097656 282.28125 C 398.457031 281.457031 397.851562 284.167969 397.085938 286.703125 C 390.601562 308.199219 384.183594 329.714844 377.601562 351.183594 C 364.320312 394.539062 351.5 438.027344 339 481.613281 C 337.527344 486.746094 337.902344 487.269531 343.066406 488.625 C 387.792969 500.367188 432.625 511.703125 477.617188 522.382812 C 483.203125 523.710938 487.445312 525.988281 491.230469 530.320312 C 500.410156 540.824219 516.730469 542.464844 528.035156 534.324219 C 530.3125 532.683594 532.480469 532.40625 535.050781 532.917969 C 558.808594 537.644531 582.5625 542.386719 606.335938 547.027344 C 628.953125 551.445312 651.605469 555.679688 674.210938 560.15625 C 678 560.90625 679.746094 559.339844 680.738281 556.128906 C 682.207031 551.359375 683.683594 546.59375 685.050781 541.796875 C 696.683594 501.042969 708.335938 460.292969 719.886719 419.519531 C 723.164062 407.953125 726.140625 396.296875 729.253906 384.683594 C 725 396.269531 721.589844 408.085938 718.144531 419.886719 C 714.730469 431.574219 711.3125 443.261719 707.808594 454.921875 C 707.304688 456.59375 707.003906 458.703125 704.601562 459.023438 C 703.382812 457.253906 704.355469 455.699219 704.742188 454.230469 C 706.203125 448.703125 707.796875 443.210938 709.386719 437.71875 C 717.550781 409.53125 725.746094 381.351562 733.890625 353.160156 C 735.722656 346.820312 734.230469 344.648438 727.230469 343.121094 C 725.9375 344.28125 725.867188 345.980469 725.480469 347.503906 C 723.511719 355.328125 721.652344 363.183594 719.679688 371.011719 C 713.15625 396.914062 705.917969 422.625 698.585938 448.308594 C 698.273438 449.414062 697.652344 451.253906 698.101562 451.621094 C 701.566406 454.464844 699.753906 457.847656 699.117188 460.890625 C 696.0625 475.414062 691.136719 489.414062 686.589844 504.246094 M 716.835938 353.109375 C 718.171875 348.457031 719.570312 343.820312 720.828125 339.148438 C 722.613281 332.511719 720.921875 329.347656 714.671875 326.566406 C 712.265625 325.496094 711.136719 326.140625 710.441406 328.472656 C 709.011719 333.25 707.4375 337.988281 706.058594 342.785156 C 693.816406 385.355469 682.183594 428.097656 670.871094 470.925781 C 670.210938 473.414062 669.679688 475.9375 669.085938 478.441406 C 673.617188 470.03125 674.273438 460.308594 678.746094 450.726562 C 680.183594 455.691406 679.113281 459.246094 678.164062 462.730469 C 672.960938 481.839844 667.6875 500.929688 662.394531 520.011719 C 660.695312 526.125 659.128906 526.996094 653.210938 524.917969 C 642.246094 521.0625 631.140625 517.726562 619.59375 516.230469 C 600.46875 513.753906 581.300781 512.972656 562.089844 515.34375 C 553.402344 516.414062 544.824219 517.984375 536.503906 520.773438 C 538.878906 520.976562 541.226562 521.152344 543.542969 520.945312 C 564.46875 519.101562 585.226562 520.335938 605.746094 524.695312 C 625.003906 528.789062 643.910156 534.144531 662.128906 541.710938 C 665.945312 543.296875 667.933594 542.554688 669.160156 538.285156 C 675.804688 515.171875 682.839844 492.167969 689.421875 469.039062 C 691.714844 460.972656 694.359375 452.949219 695.75 444.210938 C 693.90625 445.820312 694.300781 448.589844 691.285156 449.199219 C 690.699219 445.351562 691.9375 441.867188 692.871094 438.5 C 700.710938 410.238281 708.699219 382.023438 716.835938 353.109375 M 378.480469 417.722656 C 393.347656 368.335938 409.539062 319.359375 425.214844 270.171875 C 418.71875 268.585938 416.167969 269.613281 413.859375 274.695312 C 412.53125 277.625 411.410156 280.679688 410.535156 283.773438 C 405.777344 300.578125 401.039062 317.390625 396.457031 334.246094 C 384.054688 379.863281 369.746094 424.90625 355.78125 470.050781 C 353.882812 476.179688 354.09375 476.476562 360.320312 477.195312 C 381.476562 479.636719 402.621094 482.289062 423.402344 487.011719 C 446.476562 492.257812 468.125 501.238281 488.464844 513.347656 C 489.421875 513.914062 490.320312 514.894531 491.742188 514.050781 C 491.75 512.917969 491.015625 512.226562 490.25 511.542969 C 484.996094 506.839844 479.722656 502.167969 473.832031 498.242188 C 443.660156 478.148438 410.449219 468 374.195312 467.75 C 366.890625 467.699219 364.972656 465.640625 366.835938 458.621094 C 370.414062 445.152344 374.4375 431.800781 378.480469 417.722656 M 381.4375 367.679688 C 376.335938 385.671875 371.234375 403.664062 366.128906 421.65625 C 378.226562 387.699219 387.230469 352.867188 397.289062 317.941406 C 395.28125 318.257812 395.273438 319.339844 395.054688 320.09375 C 392.480469 328.953125 389.957031 337.828125 387.441406 346.703125 C 385.519531 353.476562 383.625 360.257812 381.4375 367.679688 M 699.613281 426.535156 C 697.15625 434.480469 697.15625 434.480469 698 438.554688 C 703.484375 418.605469 709.175781 399.59375 712.730469 379.996094 C 708.421875 395.28125 704.109375 410.566406 699.613281 426.535156 M 390.175781 396.738281 C 390.800781 392.785156 393.054688 389.203125 392.710938 385.015625 C 386.292969 402.804688 380.941406 420.90625 377 439.429688 C 381.324219 425.425781 385.652344 411.425781 390.175781 396.738281 M 344.582031 493.882812 C 347.996094 494.617188 351.28125 496.046875 354.910156 495.738281 C 349.511719 493.921875 343.90625 492.886719 338.558594 490.925781 C 335.191406 489.6875 333.910156 487.503906 334.492188 484.160156 C 334.84375 482.144531 335.472656 480.171875 336.035156 478.199219 C 337.5 473.046875 338.996094 467.902344 340.480469 462.757812 C 340.132812 462.648438 339.789062 462.539062 339.441406 462.429688 C 337.863281 467.496094 336.234375 472.546875 334.714844 477.632812 C 330.84375 490.59375 330.863281 490.597656 344.582031 493.882812 M 504.320312 542.214844 C 497.398438 540.257812 491.375 536.960938 487.105469 530.9375 C 485.058594 528.054688 482.230469 526.773438 479.21875 526.929688 C 487.246094 534.546875 494.378906 544.378906 507.664062 543.792969 C 507.027344 542.351562 505.828125 542.675781 504.320312 542.214844 M 389.75 299.304688 C 391.652344 292.8125 393.558594 286.320312 395.464844 279.828125 C 395.082031 279.71875 394.703125 279.609375 394.320312 279.503906 C 390.234375 291.1875 387.425781 303.246094 384.925781 315.40625 C 386.472656 310.269531 388.015625 305.132812 389.75 299.304688 M 574.886719 509.515625 C 573.996094 509.921875 572.78125 509.414062 572.195312 510.335938 C 581.058594 510.335938 589.988281 510.335938 598.917969 510.335938 C 591.164062 508.761719 583.371094 508.992188 574.886719 509.515625 M 397.085938 485.535156 C 392.878906 484.953125 388.671875 484.375 384.464844 483.792969 C 384.425781 484.097656 384.386719 484.402344 384.347656 484.710938 C 393.660156 486.203125 402.972656 487.695312 412.285156 489.1875 C 412.332031 488.878906 412.382812 488.566406 412.429688 488.253906 C 407.566406 487.390625 402.707031 486.527344 397.085938 485.535156 M 401.847656 297.503906 C 400.179688 303.207031 398.515625 308.910156 396.847656 314.613281 C 400.546875 308.097656 401.90625 300.898438 403.335938 293.695312 C 402.898438 294.761719 402.457031 295.828125 401.847656 297.503906 M 394.804688 376.492188 C 394.375 378.210938 393.945312 379.933594 393.515625 381.652344 C 393.832031 381.734375 394.144531 381.816406 394.460938 381.898438 C 396.515625 375.207031 398.570312 368.519531 400.621094 361.828125 C 400.371094 361.746094 400.117188 361.660156 399.867188 361.578125 C 398.246094 366.335938 396.628906 371.097656 394.804688 376.492188 M 666.492188 487.355469 C 665.207031 492.234375 663.394531 496.992188 663.074219 502.101562 C 665.671875 496.671875 666.566406 490.773438 667.683594 484.902344 C 667.363281 485.546875 667.046875 486.1875 666.492188 487.355469 M 712.699219 315.914062 C 712.460938 315.039062 713.019531 313.792969 711.265625 313.386719 C 710.210938 315.078125 709.640625 316.960938 709.574219 319.007812 C 709.546875 319.808594 709.910156 320.453125 710.746094 320.601562 C 711.546875 320.742188 712.253906 320.390625 712.425781 319.589844 C 712.632812 318.605469 712.632812 317.578125 712.699219 315.914062 M 532.179688 536.570312 C 530.773438 537.042969 529.574219 537.738281 528.871094 540.375 C 531.90625 537.914062 534.980469 539.140625 538.238281 538.3125 C 536.480469 536.410156 534.617188 536.535156 532.179688 536.570312 M 541.023438 525.230469 C 544.234375 525.914062 547.394531 525.902344 551.457031 524.601562 C 547.390625 523.964844 544.382812 524.777344 541.023438 525.230469 Z M 541.023438 525.230469 " fill-opacity="1" fill-rule="nonzero"/><path fill="#000000" d="M 308.828125 433.675781 C 308.40625 434.832031 308.242188 435.765625 307.746094 436.457031 C 304.089844 441.566406 302.65625 446.570312 307.960938 451.566406 C 308.4375 452.011719 308.683594 452.902344 308.710938 453.601562 C 308.976562 459.648438 303.585938 461.289062 300.09375 464.324219 C 297.726562 466.378906 294.9375 467.125 292.097656 464.792969 C 287.90625 461.355469 283.785156 461.789062 279.691406 465.0625 C 277.96875 466.445312 276.066406 468.101562 273.925781 468.117188 C 268.992188 468.15625 267.796875 471.507812 267.128906 475.175781 C 266.265625 479.9375 266.0625 484.761719 268.085938 489.523438 C 271.863281 487.742188 275.832031 486.429688 275.945312 481.34375 C 275.949219 481.027344 276.464844 480.671875 276.808594 480.417969 C 281.242188 477.125 291.023438 480.601562 292.523438 485.921875 C 293.132812 488.09375 292.972656 490.636719 295.527344 491.972656 C 297.75 493.136719 299.53125 493.648438 301.941406 491.921875 C 307.300781 488.085938 309.5625 488.472656 314.152344 493.132812 C 315.386719 494.386719 316.527344 495.734375 317.75 497.003906 C 321.011719 500.386719 321.050781 503.746094 318.351562 507.644531 C 314.519531 513.183594 315.53125 515.878906 322.070312 517.777344 C 326.589844 519.085938 328.605469 521.824219 328.53125 526.429688 C 328.492188 529.078125 328.445312 531.695312 328.003906 534.324219 C 327.441406 537.683594 325.570312 539.335938 322.257812 540.03125 C 314.632812 541.640625 313.507812 544.222656 317.453125 550.984375 C 318.996094 553.628906 319.085938 556.03125 317.113281 558.28125 C 314.890625 560.808594 312.59375 563.3125 310.0625 565.523438 C 307.242188 567.988281 304.191406 568.242188 300.796875 566.054688 C 294.652344 562.09375 291.792969 563.171875 290.097656 570.15625 C 289.046875 574.492188 286.652344 576.394531 282.308594 576.171875 C 280.402344 576.074219 278.484375 576.199219 276.582031 576.058594 C 270.175781 575.589844 269.183594 574.726562 267.664062 568.59375 C 266.1875 562.640625 263.066406 561.109375 257.855469 564.105469 C 253.960938 566.347656 250.585938 565.976562 247.453125 562.917969 C 245.773438 561.28125 244.1875 559.550781 242.609375 557.816406 C 239.511719 554.414062 239.265625 551.023438 242.074219 547.128906 C 245.304688 542.640625 243.972656 539.253906 238.453125 537.863281 C 233.722656 536.675781 231.378906 533.902344 231.480469 529.136719 C 231.539062 526.507812 231.816406 523.871094 232.21875 521.269531 C 232.863281 517.082031 235.847656 515.679688 239.667969 515.027344 C 244.277344 514.238281 246.207031 510.296875 243.703125 506.3125 C 240.96875 501.957031 240.738281 498.179688 244.570312 494.488281 C 248.519531 490.679688 251.871094 485.300781 259.292969 489.804688 C 257.15625 481.753906 257.863281 474.679688 262.066406 468.164062 C 262.875 466.902344 262.84375 465.714844 261.871094 464.523438 C 259.089844 461.121094 256.691406 457.425781 253.253906 454.546875 C 246.957031 449.269531 240.078125 447.097656 231.992188 449.640625 C 229.773438 450.335938 227.4375 450.664062 224.5 451.304688 C 228.472656 452.304688 231.851562 453.183594 235.242188 454.007812 C 238.839844 454.886719 240.59375 457.289062 241.203125 460.816406 C 242.394531 467.691406 242.191406 474.539062 241.257812 481.425781 C 240.683594 485.640625 238.546875 488.097656 234.355469 488.773438 C 233.921875 488.84375 233.484375 488.972656 233.050781 488.960938 C 223.671875 488.710938 220.246094 494.914062 218.0625 502.601562 C 217.617188 504.164062 217.660156 505.4375 218.578125 506.742188 C 219.589844 508.183594 220.527344 509.679688 221.53125 511.128906 C 227.402344 519.632812 227.261719 520.574219 220.425781 528.601562 C 217.261719 532.316406 213.789062 535.644531 210.054688 538.75 C 206.707031 541.535156 203.285156 542.0625 199.574219 539.570312 C 199.207031 539.324219 198.757812 539.175781 198.457031 538.871094 C 192.230469 532.546875 185.660156 532.785156 178.382812 537.207031 C 176.039062 538.636719 174.257812 539.777344 174.109375 542.644531 C 174.066406 543.515625 173.761719 544.371094 173.605469 545.238281 C 171.539062 556.675781 170.445312 557.671875 158.835938 558.292969 C 153.832031 558.5625 148.855469 558.273438 143.925781 557.28125 C 140.386719 556.566406 138.085938 554.683594 137.425781 551.027344 C 137.324219 550.453125 136.964844 549.882812 137 549.328125 C 137.621094 540.027344 131.621094 536.433594 124.074219 533.914062 C 121.902344 533.1875 120.1875 533.113281 118.304688 534.40625 C 116.003906 535.984375 113.601562 537.410156 111.238281 538.890625 C 105.957031 542.203125 104.539062 542.105469 99.410156 538.242188 C 94.074219 534.222656 89.707031 529.328125 85.867188 523.886719 C 83.9375 521.152344 83.667969 518.554688 85.40625 515.71875 C 86.019531 514.71875 86.339844 513.421875 87.167969 512.691406 C 93.964844 506.71875 91.480469 500.332031 88.257812 493.804688 C 87.472656 492.214844 86.367188 491.234375 84.730469 490.769531 C 83.742188 490.488281 82.746094 490.210938 81.734375 490.027344 C 67.667969 487.523438 69.304688 486.28125 67.949219 473.570312 C 67.503906 469.363281 67.902344 465.101562 68.648438 460.863281 C 69.316406 457.074219 70.972656 454.625 74.835938 453.882812 C 75.554688 453.742188 76.257812 453.300781 76.957031 453.320312 C 86.140625 453.550781 89.230469 447.117188 91.878906 439.996094 C 92.613281 438.027344 92.113281 436.625 91.117188 435.09375 C 89.355469 432.386719 87.589844 429.679688 85.90625 426.921875 C 83.925781 423.683594 84.050781 420.480469 86.457031 417.511719 C 90.816406 412.128906 95.726562 407.296875 101.164062 403.003906 C 103.753906 400.957031 106.527344 400.84375 109.425781 402.253906 C 110.085938 402.574219 110.859375 402.820312 111.339844 403.324219 C 117.925781 410.308594 124.824219 408.957031 132.15625 404.515625 C 134.738281 402.949219 136.203125 401.320312 135.796875 398.191406 C 132.0625 396.484375 128.292969 394.890625 124.640625 393.058594 C 119.570312 390.519531 118.640625 388.144531 120.246094 382.699219 C 122.097656 376.433594 119.9375 373.027344 113.425781 372.710938 C 108.695312 372.484375 106.035156 370.355469 105.191406 365.804688 C 104.765625 363.5 104.378906 361.1875 104.027344 358.871094 C 103.265625 353.851562 104.988281 350.601562 110.027344 348.640625 C 115.796875 346.398438 116.574219 341.785156 112.601562 336.914062 C 108.730469 332.164062 108.648438 330.984375 111.984375 326.050781 C 113.136719 324.347656 114.304688 322.648438 115.574219 321.035156 C 119.796875 315.667969 121.390625 315.300781 127.457031 318.128906 C 132.121094 320.304688 136.230469 318.230469 137.324219 313.058594 C 137.980469 309.953125 137.660156 306.253906 141.351562 304.84375 C 146.535156 302.867188 152.007812 302.519531 157.363281 303.835938 C 159.785156 304.433594 160.398438 307.21875 161.261719 309.410156 C 163.441406 314.9375 167.699219 316.265625 172.5625 312.964844 C 177.820312 309.394531 179.3125 309.402344 184.332031 313.1875 C 185.972656 314.425781 187.582031 315.71875 189.070312 317.128906 C 193.675781 321.492188 193.902344 322.929688 191.140625 328.667969 C 188.941406 333.242188 191.128906 337.699219 196.109375 338.53125 C 199.566406 339.109375 203.101562 339.769531 204.027344 343.703125 C 205.285156 349.0625 207.3125 354.589844 204.242188 359.972656 C 203.085938 361.992188 200.628906 362.308594 198.53125 362.976562 C 193.351562 364.621094 191.714844 369.480469 194.792969 373.960938 C 198.75 379.71875 198.742188 380.609375 194.347656 385.835938 C 193.027344 387.40625 191.570312 388.871094 190.117188 390.324219 C 185.449219 394.992188 184.3125 395.121094 178.664062 391.890625 C 177.316406 391.121094 175.988281 389.628906 174.296875 390.769531 C 172.644531 391.882812 173.421875 393.734375 173.519531 395.273438 C 173.828125 400.3125 175.890625 403.5625 180.980469 405.894531 C 187.097656 408.703125 191.753906 409.113281 197.335938 404.652344 C 203.820312 399.46875 206.503906 400.058594 212.667969 405.835938 C 216.632812 409.550781 220.523438 413.347656 223.816406 417.710938 C 226.210938 420.882812 226.542969 423.921875 224.269531 427.417969 C 222.230469 430.546875 219.550781 433.351562 218.265625 437.179688 C 221.855469 439.339844 225.488281 439.28125 229.136719 439.070312 C 229.703125 439.035156 230.53125 438.929688 230.769531 438.558594 C 234.457031 432.789062 241.929688 429.789062 242.546875 421.695312 C 242.945312 416.453125 245.207031 412.089844 251.023438 410.640625 C 252.964844 410.15625 253.484375 408.636719 252.714844 406.828125 C 247.691406 395.011719 247.15625 382.695312 248.566406 370.152344 C 248.621094 369.640625 248.308594 369.085938 248.117188 368.363281 C 244.710938 368.464844 242.898438 371.121094 240.488281 372.578125 C 233.976562 376.515625 233.234375 376.585938 227.1875 371.992188 C 222.59375 368.5 218.75 364.277344 215.324219 359.648438 C 213.148438 356.703125 212.859375 353.777344 214.953125 350.691406 C 215.777344 349.476562 216.375 348.078125 217.34375 346.996094 C 221.046875 342.855469 220.988281 338.757812 218.5625 333.800781 C 216.824219 330.253906 214.820312 328.421875 210.964844 327.609375 C 199.511719 325.195312 199.492188 324.9375 198.160156 313.359375 C 197.628906 308.769531 198.164062 304.320312 199.019531 299.816406 C 199.785156 295.773438 202.1875 293.714844 205.9375 292.800781 C 206.792969 292.59375 207.648438 292.191406 208.503906 292.199219 C 216.511719 292.265625 218.421875 286.332031 220.328125 280.339844 C 221.152344 277.746094 219.882812 275.808594 218.558594 273.824219 C 211.492188 263.242188 211.613281 262.082031 220.671875 252.953125 C 221.191406 252.429688 221.714844 251.917969 222.242188 251.40625 C 232.082031 241.824219 233.152344 241.664062 244.640625 249.335938 C 247.144531 251.003906 249.382812 251.425781 251.972656 249.898438 C 252.730469 249.453125 253.519531 248.996094 254.355469 248.765625 C 259.3125 247.398438 261.429688 244.230469 262.277344 239.085938 C 263.816406 229.761719 266.234375 228.132812 275.871094 227.679688 C 280.292969 227.476562 284.683594 227.769531 289.050781 228.429688 C 293.246094 229.0625 296.097656 231.152344 296.800781 235.597656 C 297.007812 236.898438 297.585938 238.164062 297.640625 239.460938 C 297.839844 244.351562 300.527344 246.742188 304.914062 248.667969 C 309.9375 250.867188 313.820312 250.664062 318.320312 247.371094 C 325.429688 242.167969 327.441406 242.523438 333.953125 248.496094 C 336.980469 251.269531 339.859375 254.222656 342.609375 257.273438 C 346.960938 262.105469 347.117188 264.78125 343.769531 270.273438 C 343.539062 270.652344 343.378906 271.105469 343.0625 271.386719 C 336.960938 276.847656 339.8125 282.597656 342.484375 288.34375 C 343.070312 289.605469 343.96875 290.519531 345.339844 290.898438 C 346.1875 291.132812 347.039062 291.375 347.894531 291.585938 C 360.726562 294.71875 361.191406 295.296875 361.230469 308.363281 C 361.234375 309.683594 361.253906 311.007812 361.242188 312.328125 C 361.136719 323.777344 360.039062 325.125 348.839844 327.609375 C 340.710938 329.414062 336.9375 338.902344 341.539062 345.960938 C 347.800781 355.566406 347.695312 356.710938 339.664062 365.152344 C 336.726562 368.238281 333.734375 371.25 330.179688 373.675781 C 327.179688 375.722656 324.320312 376.082031 321.238281 373.886719 C 318.847656 372.183594 316.308594 370.691406 313.894531 369.019531 C 311.859375 367.613281 310.011719 368.207031 308.136719 369.292969 C 306.144531 370.449219 307.195312 372.144531 307.421875 373.628906 C 309.03125 384.15625 308.070312 394.742188 308.191406 405.296875 C 308.273438 412.484375 307.703125 419.691406 309.289062 426.792969 C 309.785156 429.015625 309.261719 431.171875 308.828125 433.675781 M 200.832031 432.679688 C 203.976562 434.875 207.117188 437.066406 210.261719 439.257812 C 207.6875 435.863281 204.574219 433.292969 200.078125 431.765625 C 191.152344 425.832031 180.691406 424.132812 170.71875 421.082031 C 180.117188 426.15625 190.957031 427.375 200.832031 432.679688 M 95.007812 525.714844 C 104.21875 535.882812 104.21875 535.882812 115.394531 528.375 C 115.515625 528.292969 115.65625 528.234375 115.765625 528.136719 C 118.839844 525.402344 122.066406 525.636719 125.546875 527.394531 C 128.679688 528.980469 131.84375 530.644531 135.183594 531.664062 C 139.390625 532.949219 141.222656 535.527344 142.0625 539.742188 C 144.667969 552.75 144.800781 552.722656 158.128906 552.058594 C 158.570312 552.035156 159.007812 551.972656 159.449219 551.988281 C 163.566406 552.109375 166.089844 550.476562 166.609375 546.078125 C 166.933594 543.320312 167.863281 540.640625 168.308594 537.894531 C 168.789062 534.964844 170.277344 533.273438 173.140625 532.292969 C 176.742188 531.066406 180.410156 529.746094 183.632812 527.78125 C 187.96875 525.136719 191.425781 525.859375 195.316406 528.675781 C 205.113281 535.765625 205.332031 535.648438 213.679688 526.925781 C 214.695312 525.863281 215.597656 524.699219 216.589844 523.617188 C 218.902344 521.105469 219.476562 518.371094 216.941406 515.8125 C 209.972656 508.777344 210.082031 501.800781 214.4375 492.929688 C 217.546875 486.59375 221.015625 483.429688 227.703125 483.261719 C 228.582031 483.238281 229.460938 483.125 230.332031 483 C 232.941406 482.632812 234.511719 481.3125 234.996094 478.558594 C 235.792969 474.023438 235.714844 469.5 235.328125 464.957031 C 235.058594 461.800781 233.566406 459.871094 230.210938 459.414062 C 223.3125 458.472656 218.230469 456.488281 213.96875 449.253906 C 208.171875 439.40625 198.003906 433.125 186.261719 430.394531 C 180.273438 429 174.316406 427.378906 168.96875 424.050781 C 158.449219 417.503906 155.675781 407.574219 156.148438 395.996094 C 156.429688 389.101562 155.46875 388.460938 148.632812 389.304688 C 145.777344 389.65625 144.832031 390.980469 145.453125 393.769531 C 146.09375 396.625 146.480469 399.539062 147.03125 402.417969 C 147.75 406.160156 145.984375 407.890625 142.445312 408.382812 C 138.492188 408.929688 134.46875 409.820312 131.109375 411.789062 C 123.476562 416.261719 116.679688 416.507812 110.132812 409.890625 C 108.792969 408.535156 106.714844 407.117188 104.539062 408.21875 C 98.867188 411.101562 94.355469 415.496094 91.863281 421.214844 C 90.09375 425.277344 94.625 427.886719 96.207031 431.203125 C 96.453125 431.726562 96.878906 432.167969 97.246094 432.625 C 99.5 435.429688 99.792969 438.347656 98.191406 441.640625 C 96.65625 444.804688 95.144531 448.039062 94.175781 451.398438 C 93.007812 455.453125 90.589844 457.394531 86.527344 458.207031 C 74.007812 460.707031 74.023438 460.804688 74.414062 473.828125 C 74.453125 475.148438 74.535156 476.46875 74.605469 477.789062 C 74.777344 480.894531 76.421875 483.011719 79.492188 482.964844 C 88.929688 482.820312 93.496094 487.507812 96.773438 496.28125 C 99.347656 503.167969 99.242188 507.957031 94.609375 513.457031 C 90.03125 518.886719 90.34375 519.472656 95.007812 525.714844 M 319.492188 364.75 C 326.203125 369.554688 326.296875 369.589844 332.339844 363.808594 C 334.136719 362.089844 335.660156 360.089844 337.289062 358.203125 C 339.078125 356.132812 339.390625 353.773438 337.429688 351.855469 C 330.285156 344.871094 330.878906 337.804688 335.394531 329.402344 C 338.0625 324.441406 340.746094 321.582031 346.363281 320.953125 C 353.777344 320.121094 354.617188 319.121094 354.675781 311.84375 C 354.796875 297.78125 355.140625 300.050781 343.550781 297.722656 C 340.011719 297.011719 337.75 295.484375 336.683594 291.890625 C 335.8125 288.953125 334.621094 286.039062 333.089844 283.390625 C 330.695312 279.242188 331.261719 275.75 334.070312 272.035156 C 340.4375 263.601562 340.316406 263.074219 332.761719 255.777344 C 331.601562 254.660156 330.359375 253.621094 329.144531 252.558594 C 327.09375 250.761719 324.789062 250.402344 322.796875 252.3125 C 315.496094 259.328125 307.875 259.023438 299.890625 253.675781 C 299.53125 253.433594 299.097656 253.25 298.675781 253.164062 C 294.066406 252.207031 292.578125 249.007812 291.691406 244.707031 C 289.652344 234.84375 292.304688 234.097656 278.808594 234.140625 C 278.660156 234.140625 278.515625 234.144531 278.367188 234.148438 C 270.484375 234.253906 269.761719 234.574219 268.679688 242.191406 C 267.8125 248.296875 264.972656 251.347656 259.179688 254.230469 C 250.847656 258.378906 244.257812 258.816406 237.398438 252.367188 C 234.941406 250.058594 232.113281 250.605469 229.941406 252.925781 C 226.449219 256.667969 221.089844 259.089844 220.796875 265.164062 C 220.765625 265.882812 221.660156 266.648438 222.140625 267.382812 C 223.90625 270.085938 225.675781 272.785156 227.457031 275.476562 C 228.609375 277.21875 228.644531 278.902344 227.765625 280.863281 C 226.089844 284.605469 224.585938 288.433594 223.167969 292.28125 C 222.046875 295.328125 220.070312 297.042969 216.839844 297.667969 C 204.359375 300.082031 204.8125 297.300781 204.957031 312.832031 C 204.964844 313.566406 205.101562 314.304688 205.046875 315.03125 C 204.816406 318.082031 206.429688 320.214844 209.207031 320.210938 C 219.449219 320.195312 223.417969 326.597656 226.511719 335.09375 C 228.148438 339.582031 228.425781 342.863281 225.628906 346.851562 C 219.289062 355.871094 219.550781 356.820312 227.820312 364.339844 C 228.796875 365.226562 229.851562 366.027344 230.871094 366.867188 C 232.675781 368.351562 234.699219 368.8125 236.421875 367.0625 C 244.167969 359.214844 252.34375 360.261719 260.816406 365.636719 C 261.0625 365.792969 261.351562 365.894531 261.628906 365.972656 C 265.484375 367.066406 267.476562 369.59375 267.785156 373.601562 C 267.917969 375.347656 268.539062 377.046875 268.742188 378.792969 C 269.210938 382.773438 271.234375 384.597656 275.371094 384.835938 C 278.910156 385.035156 282.375 385.019531 285.902344 384.730469 C 288.761719 384.492188 290.269531 383.277344 290.421875 380.472656 C 290.945312 370.972656 294.886719 365.164062 305.007812 362.671875 C 310.546875 361.308594 314.6875 360.328125 319.492188 364.75 M 171.203125 384.515625 C 174.375 382.867188 177.40625 382.953125 180.238281 385.265625 C 183.253906 387.730469 185.441406 386.4375 187.761719 383.996094 C 190.226562 381.40625 191.007812 379.226562 188.613281 375.984375 C 183.886719 369.585938 186.820312 360.058594 194.25 357.648438 C 198.511719 356.265625 198.71875 353.417969 198.574219 349.769531 C 198.425781 346.082031 196.207031 345.125 193.21875 344.589844 C 186.015625 343.300781 181.257812 334.339844 184.414062 327.625 C 186.070312 324.105469 184.949219 321.882812 182.285156 319.617188 C 179.671875 317.390625 177.46875 317.636719 174.835938 319.601562 C 168.914062 324.023438 158.789062 321.105469 156.078125 314.230469 C 154.992188 311.476562 153.453125 310.09375 150.300781 309.824219 C 144.855469 309.355469 144.140625 312.796875 143.371094 316.804688 C 142.214844 322.847656 132.367188 328.066406 126.863281 325.390625 C 123.4375 323.722656 121.320312 324.214844 119.015625 327.226562 C 116.683594 330.269531 116.964844 332.535156 119.324219 335.355469 C 124.378906 341.40625 121.753906 351.339844 114.382812 353.835938 C 111.40625 354.84375 110.527344 356.46875 110.632812 359.335938 C 110.839844 364.980469 111.492188 365.734375 117.253906 366.125 C 123.648438 366.558594 129.8125 375.785156 127.507812 381.789062 C 126.222656 385.140625 126.390625 387.554688 129.6875 389.660156 C 133.003906 391.773438 135.828125 391.597656 138.167969 388.574219 C 141.957031 383.6875 147.199219 382.332031 152.925781 382.0625 C 158.980469 381.78125 164.859375 382.828125 171.203125 384.515625 M 248.164062 554.109375 C 250.824219 557.800781 253.34375 559.828125 258.21875 556.476562 C 263.023438 553.175781 272.304688 558.007812 272.921875 563.683594 C 273.328125 567.445312 274.980469 569.085938 278.703125 569.445312 C 282.449219 569.804688 283.824219 568.078125 284.765625 564.75 C 286.757812 557.699219 295.175781 554.625 301.203125 558.753906 C 304.019531 560.683594 305.996094 560.582031 308.515625 558.304688 C 311.136719 555.925781 311.566406 553.914062 309.734375 550.71875 C 306.011719 544.242188 309.953125 535.804688 317.320312 534.460938 C 320.644531 533.855469 321.539062 532.253906 321.886719 529.199219 C 322.394531 524.734375 319.59375 523.839844 316.3125 522.796875 C 310.238281 520.867188 307.292969 512.582031 310.816406 507.4375 C 312.59375 504.84375 313.949219 502.585938 311.316406 499.628906 C 308.6875 496.675781 306.375 496.542969 302.949219 498.582031 C 297.15625 502.03125 288.644531 498.039062 287.089844 491.460938 C 286.421875 488.625 285.976562 486.125 282.066406 486.105469 C 278.550781 486.089844 276.773438 487.402344 275.660156 490.714844 C 273.140625 498.207031 264.996094 501.019531 258.46875 496.609375 C 255.53125 494.625 253.601562 495.058594 251.226562 497.410156 C 248.832031 499.777344 247.859375 501.65625 250.042969 504.910156 C 253.863281 510.605469 250.199219 519.117188 243.417969 520.667969 C 239.832031 521.488281 237.707031 522.871094 237.667969 527.019531 C 237.628906 531.160156 240.363281 531.675781 243.246094 532.46875 C 249.28125 534.132812 252.609375 542.652344 249.417969 548.035156 C 248.421875 549.722656 246.578125 551.226562 248.164062 554.109375 M 246.949219 443.351562 C 254.222656 446.082031 260.679688 449.957031 265.25 456.464844 C 269.835938 463 269.835938 463 276.96875 458.738281 C 277.472656 458.4375 277.957031 458.105469 278.472656 457.824219 C 283.058594 455.316406 287.582031 455.019531 292.242188 457.808594 C 296 460.058594 299.292969 459.519531 301.578125 456.398438 C 304.074219 452.992188 300.847656 451.203125 299.035156 449.503906 C 295.609375 446.304688 295.683594 443.421875 298.527344 439.972656 C 300.886719 437.117188 302.867188 433.882812 302.375 429.972656 C 301.84375 425.730469 301.839844 421.523438 302.253906 417.25 C 301.71875 418.152344 301.480469 419.128906 301.085938 420.035156 C 298.695312 425.488281 294.707031 426.246094 290.480469 422.035156 C 289.132812 420.691406 287.789062 419.316406 286.613281 417.824219 C 283.78125 414.238281 280.433594 413.171875 276.15625 415.148438 C 271.882812 417.128906 267.882812 416.261719 264.097656 413.679688 C 263.1875 413.058594 262.367188 412.03125 261.019531 412.375 C 259.386719 419.648438 259.382812 419.679688 252.394531 419.421875 C 250.59375 419.355469 249.367188 420.121094 249.351562 421.8125 C 249.28125 429.898438 245.3125 435.609375 238.203125 439.535156 C 240.921875 441.75 243.761719 442.09375 246.949219 443.351562 M 261.234375 375.578125 C 260.484375 372.816406 258.664062 371.570312 255.90625 371.53125 C 250.886719 386.816406 251.671875 394.441406 262.769531 404.632812 C 267.003906 408.519531 271.273438 409.859375 276.730469 407.371094 C 280.789062 405.519531 284.789062 405.855469 287.882812 409.59375 C 290.214844 412.414062 291.886719 411.628906 293.582031 408.878906 C 295.316406 406.078125 296.648438 402.726562 300.878906 402.726562 C 302.136719 402.726562 302.390625 401.480469 302.394531 400.410156 C 302.414062 391.386719 301.175781 382.484375 299.863281 373.519531 C 297.640625 376.527344 297.648438 380.113281 296.796875 383.421875 C 295.742188 387.519531 293.609375 390.058594 289.113281 390.671875 C 283.984375 391.367188 278.867188 391.273438 273.753906 391.0625 C 265.957031 390.738281 264.203125 389.042969 262.683594 381.351562 C 262.34375 379.628906 261.84375 377.9375 261.234375 375.578125 M 204.4375 407.964844 C 200.765625 409.222656 197.863281 411.746094 194.699219 413.84375 C 192.722656 415.148438 190.300781 416.953125 188.21875 415.777344 C 180.75 411.554688 169.832031 412.25 167.199219 400.867188 C 162.960938 408.683594 164.167969 412.996094 171.328125 416.796875 C 173.925781 418.175781 176.652344 419.214844 179.527344 419.902344 C 187.851562 421.894531 195.683594 425.152344 203.085938 429.414062 C 213.398438 435.34375 210.375 435.984375 217.660156 425.5625 C 219.101562 423.503906 219.011719 421.449219 217.539062 419.453125 C 214.125 414.820312 210.359375 410.566406 204.4375 407.964844 M 161.558594 406.246094 C 162.222656 402.4375 163.851562 399.039062 165.960938 395.839844 C 167.023438 394.226562 166.503906 392.71875 165.359375 391.441406 C 164.097656 390.039062 162.324219 389.425781 160.582031 389.9375 C 158.734375 390.484375 159.339844 392.351562 159.3125 393.726562 C 159.253906 396.644531 159.230469 399.570312 159.363281 402.484375 C 159.476562 405.003906 159.664062 405.164062 161.558594 406.246094 M 224.421875 442.3125 C 223.042969 442.460938 221.609375 441.402344 220.117188 442.582031 C 220.292969 446.492188 222.144531 448.476562 226.21875 447.757812 C 229.832031 447.121094 233.511719 446.671875 236.839844 445.164062 C 233.550781 440.84375 229.128906 442.492188 224.421875 442.3125 M 297.734375 419.558594 C 298.804688 415.652344 300.585938 411.863281 300.457031 406.480469 C 296.808594 410.871094 296.425781 416.300781 290.941406 417.167969 C 293.871094 421.546875 294.136719 421.660156 297.734375 419.558594 M 256.613281 410.601562 C 255.382812 412.921875 253.03125 413.503906 250.820312 414.164062 C 248.128906 414.972656 246.515625 416.765625 246.058594 419.363281 C 245.203125 424.230469 243.941406 428.921875 241.324219 433.1875 C 244.695312 430.351562 245.832031 426.609375 246.253906 422.414062 C 246.714844 417.820312 248.894531 415.886719 252.5625 416.234375 C 257.761719 416.726562 258.210938 416.105469 256.613281 410.601562 M 262.132812 476.121094 C 260.9375 481.226562 260.5625 486.210938 264.222656 490.613281 C 262.964844 484.277344 262.417969 477.980469 264.960938 470.902344 C 262.875 472.605469 262.691406 474.082031 262.132812 476.121094 M 137.6875 537.953125 C 139.222656 542.871094 138.964844 548.269531 141.609375 552.890625 C 140.273438 548.726562 140.097656 544.335938 139.078125 540.125 C 138.757812 538.804688 139.03125 537.113281 137.441406 536.292969 C 137.40625 536.554688 137.347656 536.816406 137.34375 537.078125 C 137.339844 537.214844 137.4375 537.351562 137.6875 537.953125 M 258.101562 405.085938 C 257.320312 402.945312 255.46875 401.816406 254.015625 400.296875 C 254.347656 402.152344 254.863281 403.804688 255.5625 405.371094 C 256.171875 406.738281 257.058594 407.140625 258.101562 405.085938 M 141.851562 404.417969 C 144.09375 403.539062 144.113281 403.445312 142.878906 398.921875 C 142.441406 400.828125 142.085938 402.363281 141.851562 404.417969 Z M 141.851562 404.417969 " fill-opacity="1" fill-rule="nonzero"/><path fill="#000000" d="M 114.621094 475.71875 C 111.601562 448.523438 134.53125 430.101562 156.164062 430.4375 C 175.765625 430.742188 193.378906 447.625 195.300781 467.839844 C 197.121094 486.972656 182.96875 506.113281 164.03125 510.132812 C 140.5625 515.113281 117.972656 499.542969 114.621094 475.71875 M 147.664062 434.90625 C 129.078125 436.796875 112.785156 459.382812 118.921875 477.816406 C 117.285156 463.828125 121.117188 451.871094 132.28125 442.636719 C 137.035156 438.707031 142.738281 436.871094 149.222656 434.875 C 154.917969 434.515625 160.605469 434.355469 166.191406 435.945312 C 160.347656 433.914062 154.460938 432.683594 147.664062 434.90625 M 184.085938 486.78125 C 184.878906 484.726562 185.808594 482.71875 186.4375 480.617188 C 190.589844 466.679688 185.644531 452.160156 174.015625 443.941406 C 162.941406 436.113281 147.3125 435.988281 136.328125 443.640625 C 124.363281 451.972656 118.882812 466.671875 123.246094 480.5 C 127.324219 493.417969 136.070312 502.046875 149.683594 504.101562 C 164.582031 506.351562 175.996094 500.246094 184.085938 486.78125 M 191.054688 470.628906 C 191.472656 481.078125 187.003906 489.652344 180.460938 497.433594 C 197.101562 482.605469 194.136719 457.273438 183.3125 448.222656 C 187.800781 455.019531 190.84375 461.914062 191.054688 470.628906 Z M 191.054688 470.628906 " fill-opacity="1" fill-rule="nonzero"/><path fill="#000000" d="M 316.355469 299.808594 C 321.769531 320.140625 310.015625 340.703125 289.234375 346.070312 C 267.695312 351.632812 249.484375 338.265625 243.617188 320.40625 C 237.492188 301.769531 247.996094 281.769531 267.648438 273.359375 C 279.257812 268.390625 289.5625 271.761719 299.398438 277.734375 C 307.671875 282.761719 313.695312 289.851562 316.355469 299.808594 M 306.257812 293.441406 C 298.304688 282.101562 287.488281 277.644531 273.828125 279.859375 C 257.144531 282.5625 245.761719 299.449219 249.4375 316.140625 C 253.175781 333.117188 271.050781 344.019531 287.410156 339.632812 C 307.378906 334.277344 316.558594 312.074219 306.257812 293.441406 M 264.648438 279.105469 C 272.824219 275.601562 281.242188 275.113281 289.859375 277.035156 C 281.011719 272.542969 272.5625 273.753906 264.648438 279.105469 M 314.742188 312.210938 C 314.730469 310.328125 315.121094 308.398438 313.796875 306.636719 C 313.796875 309.671875 313.796875 312.707031 313.796875 315.777344 C 314.082031 314.804688 314.371094 313.828125 314.742188 312.210938 Z M 314.742188 312.210938 " fill-opacity="1" fill-rule="nonzero"/><path fill="#000000" d="M 137.992188 337.207031 C 155.261719 321.519531 175.734375 335.042969 177.910156 350.214844 C 179.605469 362.027344 172.292969 373.695312 160.582031 376.765625 C 149.097656 379.78125 136.484375 373.09375 132.589844 361.824219 C 129.4375 352.691406 130.984375 344.488281 137.992188 337.207031 M 153.441406 370.433594 C 164.027344 371.65625 175.015625 361.511719 170.132812 347.558594 C 167.425781 339.828125 158.800781 335.65625 150.773438 337.402344 C 142.746094 339.148438 137.570312 345.996094 137.859375 354.480469 C 138.140625 362.746094 143.957031 368.992188 153.441406 370.433594 Z M 153.441406 370.433594 " fill-opacity="1" fill-rule="nonzero"/><path fill="#000000" d="M 265.558594 545.253906 C 250.886719 531.851562 257.453125 510.796875 273.898438 506.171875 C 283.667969 503.425781 294.378906 507.527344 299.378906 516.160156 C 304.941406 525.757812 303.285156 536.859375 295.128906 544.625 C 287.78125 551.617188 276.503906 552.625 267.917969 547.042969 C 267.179688 546.5625 266.503906 545.992188 265.558594 545.253906 M 273.910156 512.980469 C 272.65625 513.734375 271.308594 514.375 270.160156 515.265625 C 264.476562 519.667969 262.621094 527.660156 265.65625 534.316406 C 268.820312 541.246094 275.707031 544.984375 282.796875 543.617188 C 291.972656 541.847656 297.71875 532.921875 295.527344 523.847656 C 293.261719 514.457031 284.519531 509.835938 273.910156 512.980469 Z M 273.910156 512.980469 " fill-opacity="1" fill-rule="nonzero"/></svg>